<svg xmlns="http://www.w3.org/2000/svg" version="1.1" xmlns:xlink="http://www.w3.org/1999/xlink" width="32" height="32"><svg width="32" height="32" viewBox="0 0 32 32" fill="none" xmlns="http://www.w3.org/2000/svg">
  <path d="M16 2C10.477 2 6 6.477 6 12C6 19.5 16 30 16 30C16 30 26 19.5 26 12C26 6.477 21.523 2 16 2Z" fill="#F97316"></path>
  <path d="M16 6C17.5 6 18.5 7 18.5 8.5V11.5C18.5 12.88 17.38 14 16 14C14.62 14 13.5 12.88 13.5 11.5V8.5C13.5 7 14.5 6 16 6ZM16 14V20" stroke="white" stroke-width="2" stroke-linecap="round"></path>
</svg><style>@media (prefers-color-scheme: light) { :root { filter: none; } }
@media (prefers-color-scheme: dark) { :root { filter: none; } }
</style></svg>